<?xml version="1.0" encoding="utf-8"?>
<!-- Generator: Adobe Illustrator 16.0.0, SVG Export Plug-In . SVG Version: 6.00 Build 0)  -->
<!DOCTYPE svg PUBLIC "-//W3C//DTD SVG 1.1//EN" "http://www.w3.org/Graphics/SVG/1.1/DTD/svg11.dtd">
<svg version="1.1" id="Layer_1" xmlns="http://www.w3.org/2000/svg" xmlns:xlink="http://www.w3.org/1999/xlink" x="0px" y="0px"
	 width="841.89px" height="595.276px" viewBox="0 0 841.89 595.276" enable-background="new 0 0 841.89 595.276"
	 xml:space="preserve">
<g>
	<defs>
		<path id="SVGID_1_" d="M403.516,108.642c-1.331,1.008-2.128,2.57-2.164,4.238c-0.002,0.119-0.022,1.216,0.052,3.241
			c0.001,0.044,0.004,0.09,0.007,0.134c0.071,1.156,0.152,3.491,0.135,8.059c-0.194,6.764-0.988,17.097-5.568,28.927
			c-5.032,13.351-13.147,23.414-25.554,31.716c-7.629,5.058-16.291,8.872-25.729,11.324c-10.085,2.72-22.42,4.397-40.043,5.456
			c-5.305,0.316-10.651,0.611-16.311,0.923c-29.555,1.629-63.055,3.476-96.754,9.188c-21.835,3.736-41.938,8.984-59.756,15.599
			c-19.621,7.239-37.836,16.635-54.129,27.921c-18.346,12.464-32.455,26.131-41.893,40.597c-5.335,8.164-9.308,16.738-11.804,25.481
			c-2.186,7.756-3.139,15.89-2.838,24.198c0.726,17.182,7.032,26.919,9.739,30.338c0.874,1.131,1.921,2.42,3.107,3.493
			c0.924,0.924,1.739,1.674,2.625,2.279l1.626,1.211c0.972,0.725,2.119,1.08,3.262,1.08c1.353,0,2.7-0.498,3.746-1.483
			c1.929-1.816,2.278-4.754,0.828-6.972l-1.252-1.912c-0.059-0.091-0.121-0.179-0.185-0.266c-0.138-0.188-0.42-0.716-0.837-1.566
			c-0.051-0.104-0.104-0.205-0.162-0.306c-0.377-0.658-0.807-1.781-1.139-2.685c-0.008-0.022-0.016-0.044-0.024-0.066
			c-0.845-2.206-3.421-10.312-1.13-22.023c1.065-5.316,2.841-10.299,5.132-14.384c2.677-4.764,6.327-9.347,10.552-13.249
			c8.497-7.912,20.25-14.507,35.947-20.176c14.391-5.356,30.204-9.148,47.053-11.289c13.403-1.724,28.4-2.562,45.856-2.562
			c2.168,0,4.345,0.013,6.525,0.036c12.536,0.136,25.555,0.63,38.146,1.108c15.287,0.58,31.097,1.18,46.697,1.18
			c9.903,0,18.824-0.238,27.272-0.726c22.098-1.33,40.688-5.314,56.845-12.177c17.645-7.345,33.637-18.889,46.209-33.371
			c11.636-13.283,20.333-29.027,25.137-45.513c3.969-13.576,5.256-27.309,3.826-40.813c-1.031-9.829-3.537-18.805-7.449-26.674
			c-2.671-5.341-5.95-9.868-10.031-13.853c-0.061-0.058-0.122-0.116-0.185-0.172c-2.766-2.463-5.364-4.234-7.722-5.265
			c-1.663-0.776-2.649-1.07-3-1.16c-0.45-0.117-0.909-0.173-1.365-0.173C405.636,107.534,404.475,107.915,403.516,108.642"/>
	</defs>
	<clipPath id="SVGID_2_">
		<use xlink:href="#SVGID_1_"  overflow="visible"/>
	</clipPath>
	
		<linearGradient id="SVGID_3_" gradientUnits="userSpaceOnUse" x1="0" y1="595.2954" x2="1" y2="595.2954" gradientTransform="matrix(616.0001 -288 -288 -616.0001 171462.2188 367045.25)">
		<stop  offset="0" style="stop-color:#602E8F"/>
		<stop  offset="0.3539" style="stop-color:#992C6A"/>
		<stop  offset="0.6688" style="stop-color:#C5274A"/>
		<stop  offset="0.8907" style="stop-color:#E02231"/>
		<stop  offset="1" style="stop-color:#EC2027"/>
	</linearGradient>
	<polygon clip-path="url(#SVGID_2_)" fill="url(#SVGID_3_)" points="-85.223,157.134 363.174,-52.506 544.087,334.446 
		95.69,544.086 	"/>
</g>
<g>
	<defs>
		<path id="SVGID_4_" d="M716.58,279.477c-2.581,0.581-4.203,2.307-4.895,5.136c-0.979,4.079-2.287,8.319-3.914,12.725
			c-1.633,4.403-3.347,8.728-5.138,12.967c-1.796,4.242-3.386,8.317-4.772,12.232c-1.386,3.915-2.488,7.503-3.301,10.766
			c-0.33,1.796,0.037,3.997,1.1,6.604c1.059,2.611,2.484,5.137,4.284,7.585c1.792,2.447,3.792,4.611,5.993,6.485
			c2.201,1.873,4.28,3.057,6.238,3.546c2.281-5.219,4.606-9.787,6.971-13.702c2.366-3.914,4.69-7.743,6.974-11.498
			c2.283-3.751,4.526-7.421,6.73-11.011c2.201-3.584,4.195-7.745,5.994-12.475c0.324-1.472-0.287-3.875-1.836-7.22
			c-1.554-3.342-3.509-6.687-5.871-10.032c-2.369-3.342-4.895-6.277-7.584-8.806c-2.387-2.241-4.482-3.36-6.291-3.36
			C717.031,279.421,716.803,279.44,716.58,279.477"/>
	</defs>
	<clipPath id="SVGID_5_">
		<use xlink:href="#SVGID_4_"  overflow="visible"/>
	</clipPath>
	
		<linearGradient id="SVGID_6_" gradientUnits="userSpaceOnUse" x1="0" y1="595.2749" x2="1" y2="595.2749" gradientTransform="matrix(624.8969 -345.0351 -345.0351 -624.8969 205526.9375 372623.8438)">
		<stop  offset="0" style="stop-color:#602E8F"/>
		<stop  offset="0.3539" style="stop-color:#992C6A"/>
		<stop  offset="0.6688" style="stop-color:#C5274A"/>
		<stop  offset="0.8907" style="stop-color:#E02231"/>
		<stop  offset="1" style="stop-color:#EC2027"/>
	</linearGradient>
	<polygon clip-path="url(#SVGID_5_)" fill="url(#SVGID_6_)" points="661.181,297.669 728.67,260.405 772.218,339.276 
		704.729,376.54 	"/>
</g>
<g>
	<defs>
		<path id="SVGID_7_" d="M174.286,268.642c1.375-0.273,2.728-0.59,4.111-0.845c-6.965,10.604-14.521,22.355-22.67,35.252
			c-8.154,12.898-16.344,26.392-24.571,40.474c-11.394,4.276-22.552,9.697-33.473,16.264c-5.362,3.227-10.667,6.867-15.914,10.912
			c-4.566,3.52-9.086,7.361-13.564,11.5c-0.092,0.606-0.155,1.22-0.155,1.847c0,6.736,5.419,12.294,12.466,13.233
			c3.96-3.379,8.057-6.469,12.3-9.244c1.414-0.924,2.851-1.824,4.306-2.706c4.65-2.824,9.504-5.443,14.567-7.855
			c-5.068,9.18-9.815,18.202-14.242,27.061c-4.434,8.866-8.469,17.412-12.109,25.643c-3.641,8.229-6.764,16.062-9.376,23.5
			c-2.611,7.439-4.475,14.244-5.579,20.415c-2.219,5.541-2.89,10.685-2.019,15.434c0.868,4.746,2.452,8.385,4.747,10.919
			c2.295,2.53,4.946,3.639,7.955,3.322c3.003-0.318,5.615-2.77,7.834-7.36c2.214-8.229,5.496-17.529,9.851-27.892
			c4.352-10.363,9.455-21.286,15.312-32.762c5.855-11.472,12.304-23.382,19.348-35.729c7.04-12.344,14.363-24.607,21.96-36.795
			c11.075-2.531,21.918-4.313,32.523-5.342c10.602-1.027,20.572-1.938,29.911-2.729c2.851-0.156,5.617-0.314,8.31-0.477
			c2.689-0.156,5.378-0.393,8.071-0.712c0.951-0.156,2.136-1.104,3.56-2.85c1.426-1.737,2.887-3.874,4.394-6.408
			c1.502-2.529,3.004-5.259,4.509-8.189c1.503-2.928,2.689-5.657,3.562-8.19c0.867-2.529,1.424-4.707,1.66-6.528
			c0.239-1.817-0.117-2.808-1.067-2.967c-6.332,1.269-12.86,2.413-19.585,3.44c-6.728,1.03-13.258,2.017-19.585,2.968
			c-6.016,0.95-11.951,1.901-17.805,2.849c-5.858,0.949-11.792,2.06-17.804,3.325c11.869-18.198,23.739-34.74,35.609-49.617
			c1.58-3.166,1.899-6.447,0.949-9.853c-0.487-1.742-1.145-3.41-1.964-5.008c-5.542-1.707-11.321-2.666-17.016-2.667
			C186.874,264.274,180.261,265.613,174.286,268.642"/>
	</defs>
	<clipPath id="SVGID_8_">
		<use xlink:href="#SVGID_7_"  overflow="visible"/>
	</clipPath>
	
		<linearGradient id="SVGID_9_" gradientUnits="userSpaceOnUse" x1="0" y1="595.2583" x2="1" y2="595.2583" gradientTransform="matrix(616 -288 -288 -616 171492.9531 367111.2188)">
		<stop  offset="0" style="stop-color:#602E8F"/>
		<stop  offset="0.3539" style="stop-color:#992C6A"/>
		<stop  offset="0.6688" style="stop-color:#C5274A"/>
		<stop  offset="0.8907" style="stop-color:#E02231"/>
		<stop  offset="1" style="stop-color:#EC2027"/>
	</linearGradient>
	<polygon clip-path="url(#SVGID_8_)" fill="url(#SVGID_9_)" points="-24.514,307.291 218.994,193.442 344.117,461.067 
		100.609,574.915 	"/>
</g>
<g>
	<defs>
		<path id="SVGID_10_" d="M393.992,95.946c5.374,38.427,3.037,72.8-28.318,91.922l58.845,28.253
			c26.491-51.684,22.044-94.608-24.576-124.057c-0.663-0.418-1.369-0.607-2.057-0.607C395.661,91.458,393.641,93.432,393.992,95.946
			"/>
	</defs>
	<clipPath id="SVGID_11_">
		<use xlink:href="#SVGID_10_"  overflow="visible"/>
	</clipPath>
	
		<linearGradient id="SVGID_12_" gradientUnits="userSpaceOnUse" x1="0" y1="595.2778" x2="1" y2="595.2778" gradientTransform="matrix(616 -288 -288 -616 171454.4531 367028.7188)">
		<stop  offset="0" style="stop-color:#602E8F"/>
		<stop  offset="0.3539" style="stop-color:#992C6A"/>
		<stop  offset="0.6688" style="stop-color:#C5274A"/>
		<stop  offset="0.8907" style="stop-color:#E02231"/>
		<stop  offset="1" style="stop-color:#EC2027"/>
	</linearGradient>
	<polygon clip-path="url(#SVGID_11_)" fill="url(#SVGID_12_)" points="317.844,113.819 435.703,58.716 498.84,193.759 
		380.981,248.862 	"/>
</g>
<g>
	<defs>
		<path id="SVGID_13_" d="M680.944,351.272c-1.285,0.749-2.316,1.695-3.084,2.847c-2.695,5.542-5.979,11.675-9.853,18.398
			c-3.882,6.729-7.876,13.651-11.99,20.772c-6.33,10.444-12.462,20.892-18.396,31.336c-5.934,10.446-10.486,19.627-13.651,27.539
			l0.238-0.238c-2.375,5.382-4.113,10.767-5.223,16.146c-1.106,6.965-0.593,12.781,1.543,17.447c2.136,4.667,6.29,7.081,12.464,7.24
			c2.847,0,5.774-0.438,8.783-1.305c3.003-0.872,5.854-1.941,8.547-3.206c2.689-1.266,5.179-2.646,7.479-4.153
			c2.29-1.504,4.232-2.81,5.815-3.918c9.969-8.071,19.857-17.407,29.675-28.013c9.81-10.601,18.672-21.047,26.587-31.338
			l-0.237,0.479c0.949-1.106,1.105-2.494,0.477-4.156c-0.635-1.663-1.625-3.164-2.967-4.512c-1.349-1.342-2.813-2.291-4.393-2.848
			c-1.586-0.553-2.852-0.354-3.799,0.593l-4.275,5.698c-3.958,4.746-8.07,9.694-12.345,14.838
			c-4.271,5.145-8.662,10.013-13.174,14.6c-4.511,4.593-9.219,8.664-14.125,12.227c-4.908,3.563-9.892,6.135-14.956,7.714h-1.663
			c-0.947,0-0.947-1.146,0-3.44c0.951-2.292,2.494-5.342,4.63-9.142c2.137-3.799,4.75-8.149,7.832-13.055
			c3.087-4.905,6.33-9.933,9.734-15.076c3.4-5.14,6.803-10.207,10.211-15.194c3.4-4.984,6.527-9.532,9.376-13.648
			c1.106-1.739,2.375-3.64,3.799-5.697c1.423-2.056,2.69-3.879,3.799-5.462c1.103-1.578,1.977-2.847,2.609-3.798
			s0.792-1.265,0.477-0.951c2.054-3.636,2.61-7.395,1.66-11.272c-0.948-3.878-2.61-7.28-4.983-10.211
			c-2.375-2.925-5.146-5.141-8.311-6.646c-1.824-0.865-3.515-1.297-5.075-1.297C683.029,350.568,681.951,350.802,680.944,351.272"/>
	</defs>
	<clipPath id="SVGID_14_">
		<use xlink:href="#SVGID_13_"  overflow="visible"/>
	</clipPath>
	
		<linearGradient id="SVGID_15_" gradientUnits="userSpaceOnUse" x1="0" y1="595.271" x2="1" y2="595.271" gradientTransform="matrix(616 -288 -288 -616 171602.2031 367344.7188)">
		<stop  offset="0" style="stop-color:#602E8F"/>
		<stop  offset="0.3539" style="stop-color:#992C6A"/>
		<stop  offset="0.6688" style="stop-color:#C5274A"/>
		<stop  offset="0.8907" style="stop-color:#E02231"/>
		<stop  offset="1" style="stop-color:#EC2027"/>
	</linearGradient>
	<polygon clip-path="url(#SVGID_14_)" fill="url(#SVGID_15_)" points="563.325,376.074 702.294,311.101 775.3,467.253 
		636.331,532.226 	"/>
</g>
<g>
	<defs>
		<path id="SVGID_16_" d="M241.291,467.076c-5.476-0.333-9.045-2.609-10.702-6.846c-1.66-4.23-1.91-9.493-0.746-15.798
			c0.663-4.646,2.031-9.667,4.108-15.064c2.072-5.388,4.642-10.826,7.714-16.297c3.07-5.479,6.511-10.743,10.33-15.806
			c3.813-5.063,7.962-9.667,12.445-13.813c4.312-3.819,8.875-7.007,13.687-9.583c4.812-2.57,9.042-4.021,12.695-4.354
			c1.823,0,2.986,0.167,3.483,0.493c-0.994,0.5-2.366,1.334-4.104,2.493c-1.744,1.159-3.529,2.527-5.356,4.104
			c-1.826,1.577-3.524,3.404-5.1,5.479c-1.579,2.076-2.614,4.188-3.111,6.348c-0.333,1.827-0.708,3.979-1.122,6.466
			c-0.413,2.493-0.621,4.854-0.621,7.097c0,2.236,0.208,4.271,0.621,6.098c0.414,1.825,1.286,2.985,2.615,3.486
			c2.103,0.901,5.827-1.105,7.219-4.235c0.497-1.327,1.368-2.82,2.611-4.481c1.246-1.652,2.653-3.234,4.232-4.728
			c1.577-1.493,3.237-2.778,4.979-3.854c1.74-1.076,2.894-1.604,4.223-1.604l-0.118,1.229c-0.663,4.646-2.077,9.708-4.23,15.18
			c-2.159,5.479-4.816,10.993-7.965,16.557c-3.152,5.556-6.681,10.867-10.576,15.923c-3.903,5.063-7.927,9.5-12.073,13.319
			c-4.149,3.82-8.378,6.841-12.694,9.084c-4.016,2.087-7.884,3.128-11.61,3.128C241.846,467.094,241.568,467.087,241.291,467.076
			 M274.27,348.73c-7.219,2.41-14.313,5.892-21.282,10.452c-6.968,4.568-13.649,10-20.035,16.305
			c-6.388,6.305-12.069,13.028-17.047,20.16c-4.98,7.132-9.209,14.479-12.695,22.027c-3.483,7.549-5.809,14.896-6.969,22.028
			c-0.334,2.319-0.583,4.521-0.747,6.59c-0.166,2.076-0.246,4.026-0.246,5.854c0.33,14.596,3.982,25.382,10.951,32.353
			c6.969,6.967,15.841,10.536,26.628,10.701c5.806,0,11.824-1.333,18.045-3.984c6.223-2.647,12.32-6.259,18.296-10.827
			c5.972-4.556,11.698-9.951,17.173-16.173c5.472-6.223,10.365-12.778,14.685-19.667c4.312-6.883,8.002-14.014,11.072-21.403
			c3.069-7.381,5.184-14.638,6.347-21.778c0.33-1.818,0.538-3.394,0.622-4.728c0.084-1.326,0.288-2.653,0.625-3.979
			c0-4.146-0.337-7.882-0.997-11.202c-0.667-3.318-1.826-6.138-3.485-8.464c-0.334-6.469-2.032-12.274-5.102-17.418
			c-3.072-5.145-7.927-8.379-14.558-9.707c-1.196-0.086-2.396-0.129-3.6-0.129C286.144,345.741,280.249,346.74,274.27,348.73"/>
	</defs>
	<clipPath id="SVGID_17_">
		<use xlink:href="#SVGID_16_"  overflow="visible"/>
	</clipPath>
	
		<linearGradient id="SVGID_18_" gradientUnits="userSpaceOnUse" x1="0" y1="595.2778" x2="1" y2="595.2778" gradientTransform="matrix(616 -288 -288 -616 171529.9531 367190.2188)">
		<stop  offset="0" style="stop-color:#602E8F"/>
		<stop  offset="0.3539" style="stop-color:#992C6A"/>
		<stop  offset="0.6688" style="stop-color:#C5274A"/>
		<stop  offset="0.8907" style="stop-color:#E02231"/>
		<stop  offset="1" style="stop-color:#EC2027"/>
	</linearGradient>
	<polygon clip-path="url(#SVGID_17_)" fill="url(#SVGID_18_)" points="137.906,372.55 297.371,297.996 377.036,468.391 
		217.571,542.946 	"/>
</g>
<g>
	<defs>
		<path id="SVGID_19_" d="M791.938,260.756c-2.036,5.087-3.028,6.99-5.994,13.002c-2.967,6.019-6.189,12.248-9.662,18.69
			c-3.477,6.441-7.119,13.01-10.933,19.702c-3.813,6.698-7.669,13.267-11.566,19.705l-13.73,21.355
			c-9.662,15.598-19.03,31.403-28.096,47.422c-9.07,16.015-16.144,32.501-21.229,49.449c-0.677,1.698-1.27,3.604-1.78,5.721
			c-0.506,2.121-0.933,4.11-1.27,5.977c-0.674,4.409-0.891,8.431-0.636,12.074c0.252,3.649,1.019,6.867,2.288,9.662
			c1.271,2.799,3.09,5.044,5.466,6.738c2.373,1.693,5.424,2.625,9.155,2.796c3.217,0,6.438-0.469,9.658-1.397
			c3.221-0.933,6.271-2.078,9.155-3.434c2.88-1.354,5.504-2.834,7.881-4.448c2.373-1.61,4.321-3.089,5.85-4.447
			c8.98-7.46,17.497-16.146,25.549-26.063c8.052-9.915,15.551-19.705,22.503-29.367l8.394-11.439
			c0.673-1.185,0.545-2.582-0.386-4.195c-0.932-1.61-2.205-3.009-3.812-4.196c-1.614-1.183-3.268-2.032-4.959-2.54
			c-1.695-0.511-2.884-0.255-3.559,0.762c-1.018,1.359-2.125,2.756-3.305,4.193c-1.188,1.443-3.05,4.452-3.05,4.452
			c-3.732,5.253-7.631,10.638-11.699,16.142c-4.069,5.512-8.307,10.681-12.712,15.511c-4.409,4.831-8.986,9.152-13.728,12.969
			c-4.748,3.813-9.58,6.568-14.493,8.262c-1.199,0.416-1.303-0.189-1.019-2.033c0.507-3.56,2.033-8.303,4.576-14.238
			c2.543-5.935,5.678-12.415,9.407-19.451c3.728-7.03,7.796-14.323,12.205-21.863c4.404-7.541,8.683-14.749,12.84-21.612
			c4.15-6.867,8.01-13.096,11.568-18.689c3.56-5.595,6.355-9.998,8.391-13.221l2.033-3.305c3.561-5.594,7.331-11.567,11.313-17.924
			c3.981-6.356,7.793-12.499,11.444-18.435c3.642-5.931,6.863-11.271,9.658-16.018c2.799-4.742,4.789-8.389,5.977-10.932
			c1.525-3.728,1.525-7.583,0-11.57c-1.525-3.98-3.773-7.498-6.74-10.548c-2.964-3.055-6.528-4.766-9.914-6.741
			c-1.091-0.637-2.241-0.909-3.379-0.909C796.381,256.324,793.273,258.503,791.938,260.756"/>
	</defs>
	<clipPath id="SVGID_20_">
		<use xlink:href="#SVGID_19_"  overflow="visible"/>
	</clipPath>
	
		<linearGradient id="SVGID_21_" gradientUnits="userSpaceOnUse" x1="0" y1="595.2759" x2="1" y2="595.2759" gradientTransform="matrix(616 -288 -288 -616 171600.9531 367342.2188)">
		<stop  offset="0" style="stop-color:#602E8F"/>
		<stop  offset="0.3539" style="stop-color:#992C6A"/>
		<stop  offset="0.6688" style="stop-color:#C5274A"/>
		<stop  offset="0.8907" style="stop-color:#E02231"/>
		<stop  offset="1" style="stop-color:#EC2027"/>
	</linearGradient>
	<polygon clip-path="url(#SVGID_20_)" fill="url(#SVGID_21_)" points="595.962,298.787 797.055,204.769 911.982,450.585 
		710.89,544.603 	"/>
</g>
<g>
	<defs>
		<rect id="SVGID_22_" width="841.89" height="595.276"/>
	</defs>
	<clipPath id="SVGID_23_">
		<use xlink:href="#SVGID_22_"  overflow="visible"/>
	</clipPath>
	<path clip-path="url(#SVGID_23_)" fill="#FFFFFF" d="M431.689,154.797c-1.153-10.8-4.04-19.116-7.099-25.21
		c-3.091-6.124-6.502-9.984-9.179-12.579c-2.835-2.504-4.977-3.793-6.492-4.441c-1.464-0.685-2.167-0.866-2.167-0.866
		s-0.021,1.014,0.054,2.969c0.12,1.9,0.168,4.878,0.158,8.613c-0.206,7.56-1.125,18.657-6.038,31.282
		c-4.891,12.911-13.034,24.712-28.216,34.783c-7.617,5.007-16.794,9.344-28.018,12.226c-11.378,3.032-25.114,4.671-42.045,5.66
		c-0.373,0.021-0.766,0.041-1.14,0.063c-11.066,7.48-22.733,13.324-35.359,16.549c15.75,4.653,37.864,2.615,61.799-1.339
		c-25.856,6.078-50.765,15.515-74.606,28.74c29.007-4.515,56.773-6.977,82.848-6.643c-8.554,9.953-18.726,17.425-30.26,22.807
		c14.644,1.612,27.777,0.927,38.99-2.676c-1.057,3.786-4.473,8.221-9.27,13.037c7.738-1.799,15.324-4.131,22.621-7.201
		c17.851-7.356,33.401-18.858,45.215-32.366c11.941-13.531,20.133-29.085,24.527-44.103
		C432.481,178.878,432.852,165.563,431.689,154.797"/>
</g>
<g>
	<defs>
		<path id="SVGID_24_" d="M536.657,246.801c-6.617,16.184-16.447,35.592-29.499,58.215c-6.964,2.961-13.88,6.264-20.756,9.921
			c-6.876,3.651-13.879,7.746-21.014,12.27c-2.961,1.915-5.004,4.089-6.133,6.525c-1.135,2.437-1.437,4.658-0.914,6.658
			c0.521,1.999,1.783,3.521,3.784,4.565c1.999,1.046,4.568,1.046,7.702,0l0.783-0.262l17.488-8.875l-5.757,8.927
			c-5.222,8.18-10.402,16.534-15.534,25.06c-5.134,8.529-10.049,17.143-14.75,25.843c-4.697,8.704-9.049,17.492-13.052,26.367
			c-4.004,8.875-7.398,17.751-10.18,26.626c-0.698,1.744-1.305,3.701-1.827,5.874c-0.522,2.179-0.96,4.222-1.305,6.137
			c-0.695,4.527-0.915,8.657-0.653,12.397c0.261,3.746,1.044,7.051,2.35,9.92c1.306,2.874,3.174,5.179,5.612,6.92
			c2.436,1.737,5.569,2.694,9.397,2.87c3.304,0,6.612-0.481,9.921-1.437c3.303-0.956,6.435-2.133,9.397-3.524
			c2.956-1.391,5.652-2.909,8.093-4.566c2.435-1.654,4.438-3.172,6.004-4.567c9.223-7.657,17.967-16.577,26.233-26.762
			c8.268-10.178,15.967-20.229,23.104-30.15l8.617-11.744c0.691-1.217,0.561-2.651-0.394-4.309
			c-0.958-1.652-2.266-3.089-3.915-4.309c-1.657-1.213-3.354-2.087-5.092-2.607c-1.74-0.524-2.961-0.263-3.653,0.782
			c-1.045,1.396-2.181,2.83-3.394,4.305c-1.221,1.482-2.35,3.004-3.395,4.57h0.264c-3.832,5.394-7.835,10.923-12.012,16.575
			c-4.178,5.659-8.528,10.965-13.053,15.926c-4.528,4.961-9.225,9.396-14.095,13.315c-4.876,3.916-9.836,6.743-14.879,8.48
			c-0.729,0.247-1.316,0.203-1.83,0c0.003-0.007,0.008-0.014,0.01-0.021c-30.479-27.736,10.608-43.544,25.471-55.314
			c0.726-1.26,1.446-2.516,2.191-3.789c4.522-7.744,8.915-15.143,13.184-22.19c4.261-7.051,8.223-13.445,11.876-19.188
			c3.656-5.743,6.526-10.267,8.616-13.573l2.087-3.395c2.437-3.653,4.916-7.48,7.44-11.486c2.521-4.003,7.366-11.796,9.805-15.974
			c6.265-1.392,12.442-2.434,18.535-3.132c6.089-0.692,12.095-1.046,18.013-1.046c1.912,0,3.826,0.048,5.743,0.132
			c1.912,0.091,3.74,0.222,5.481,0.394c2.09,0,4.221-0.954,6.398-2.874c2.174-1.912,4.13-4.217,5.871-6.916
			c1.74-2.699,3.088-5.568,4.046-8.616c0.958-3.041,1.264-5.875,0.914-8.483c-1.741-0.171-4.006-0.302-6.785-0.393
			c-2.786-0.084-5.051-0.131-6.789-0.131c-11.314,0-22.801,1.045-34.46,3.132l7.572-13.311c1.566-3.828,1.566-7.787,0-11.88
			c-1.564-4.086-3.876-7.699-6.919-10.831c-3.045-3.135-6.44-5.438-10.179-6.919c-1.932-0.761-3.734-1.142-5.408-1.142
			C539.465,245.79,538.005,246.126,536.657,246.801"/>
	</defs>
	<clipPath id="SVGID_25_">
		<use xlink:href="#SVGID_24_"  overflow="visible"/>
	</clipPath>
	
		<linearGradient id="SVGID_26_" gradientUnits="userSpaceOnUse" x1="0" y1="595.2632" x2="1" y2="595.2632" gradientTransform="matrix(616 -288 -288 -616 171552.2031 367237.7188)">
		<stop  offset="0" style="stop-color:#602E8F"/>
		<stop  offset="0.3539" style="stop-color:#992C6A"/>
		<stop  offset="0.6688" style="stop-color:#C5274A"/>
		<stop  offset="0.8907" style="stop-color:#E02231"/>
		<stop  offset="1" style="stop-color:#EC2027"/>
	</linearGradient>
	<polygon clip-path="url(#SVGID_25_)" fill="url(#SVGID_26_)" points="330.026,290.09 572.145,176.893 699.11,448.458 
		456.992,561.657 	"/>
</g>
<g>
	<defs>
		<path id="SVGID_27_" d="M367.114,353.053c-3.009,2.295-5.382,4.551-7.123,6.767l-17.566,24.924
			c-4.119,5.856-8.034,11.477-11.752,16.855c-3.72,5.382-6.848,10.052-9.377,14.006l0.474-0.235c-0.793,1.109-0.793,2.372,0,3.799
			c0.79,1.425,1.9,2.691,3.324,3.797c1.425,1.108,2.927,1.899,4.51,2.372c1.58,0.479,2.768,0.321,3.563-0.473l12.581-17.093
			l7.596-10.207c0,5.541,0.078,11.513,0.238,17.921c0.157,6.412,0.393,12.863,0.712,19.347
			c-13.454,9.818-26.67,18.721-39.645,26.708c-12.975,7.994-25.48,14.762-37.508,20.299c-2.375,2.061-3.718,4.196-4.036,6.409
			c-0.316,2.217,0.118,4.072,1.305,5.58c1.187,1.499,2.89,2.451,5.104,2.849c2.218,0.394,4.511-0.119,6.885-1.544
			c11.239-4.116,22.749-9.531,34.541-16.261c11.787-6.727,23.621-14.28,35.491-22.67c1.58,9.968,3.994,18.36,7.239,25.163
			c3.243,6.803,7.717,10.446,13.414,10.919c5.222,0.315,10.287-0.83,15.194-3.44c4.904-2.613,9.652-6.092,14.244-10.445
			c4.588-4.354,9.021-9.261,13.294-14.719c4.274-5.461,8.309-10.804,12.106-16.026l9.021-12.106l13.058-18.041
			c0.63-1.106,0.512-2.411-0.357-3.917c-0.871-1.505-2.057-2.81-3.561-3.92c-1.505-1.104,0.274-2.609-1.304-3.083
			c-1.586-0.478-2.693-0.238-3.325,0.713c-3.957,5.382-7.28,9.893-9.969,13.527c-2.693,3.645-4.987,6.648-6.887,9.022
			c-1.899,2.375-3.441,4.355-4.628,5.935c-1.188,1.583-2.337,3.087-3.442,4.511c-2.375,2.693-4.712,5.264-7.003,7.718
			c-2.297,2.454-4.511,4.67-6.648,6.646c-2.136,1.981-4.118,3.562-5.934,4.747c-1.822,1.189-3.443,1.702-4.867,1.543
			c-0.355-0.007-0.746-0.134-1.154-0.344l-0.006,0.011c-0.01-0.008-0.019-0.017-0.029-0.027c-0.828-0.436-1.739-1.298-2.661-2.583
			c-24.878-25.778,12.706-40.903,27.546-52.25c1.256-1.121,2.506-2.246,3.748-3.371c0.109-0.125,0.223-0.251,0.321-0.375
			l-0.075,0.152c11.932-10.82,20.814-18.988,30.62-28.475c1.105-2.057,1.74-4.591,1.899-7.599c0.155-3.004-0.04-5.775-0.593-8.309
			c-0.558-2.53-1.505-4.352-2.849-5.462c-1.347-1.103-3.051-0.788-5.105,0.951l-0.236,0.473
			c-9.34,9.658-17.477,17.512-28.398,27.563c-10.922,10.051-22.316,19.98-34.186,29.791c-0.159-14.398-0.159-32.126,0-53.178
			c-2.058-5.536-5.067-8.31-9.021-8.31C373.048,349.608,370.119,350.759,367.114,353.053"/>
	</defs>
	<clipPath id="SVGID_28_">
		<use xlink:href="#SVGID_27_"  overflow="visible"/>
	</clipPath>
	
		<linearGradient id="SVGID_29_" gradientUnits="userSpaceOnUse" x1="0" y1="595.2808" x2="1" y2="595.2808" gradientTransform="matrix(615.9998 -287.9999 -287.9999 -615.9998 171551.1719 367235.625)">
		<stop  offset="0" style="stop-color:#602E8F"/>
		<stop  offset="0.3539" style="stop-color:#992C6A"/>
		<stop  offset="0.6688" style="stop-color:#C5274A"/>
		<stop  offset="0.8907" style="stop-color:#E02231"/>
		<stop  offset="1" style="stop-color:#EC2027"/>
	</linearGradient>
	<polygon clip-path="url(#SVGID_28_)" fill="url(#SVGID_29_)" points="216.212,376.059 423.497,279.147 513.017,470.62 
		305.732,567.532 	"/>
</g>
<g>
	<defs>
		<path id="SVGID_30_" d="M533.64,462.372c-1.424-0.313-2.493-1.025-3.206-2.136c-0.712-1.106-1.066-2.45-1.066-4.033
			s0.156-3.242,0.474-4.988c0.314-2.53,0.868-5.104,1.663-7.713c0.788-2.613,1.579-4.785,2.374-6.528
			c2.689-6.173,6.369-13.06,11.039-20.657c4.666-7.593,9.849-14.717,15.549-21.365c5.696-6.646,11.632-12.144,17.806-16.499
			c6.169-4.348,12.184-6.443,18.038-6.29c1.902,0.16,3.402,0.713,4.512,1.664c1.106,0.947,1.901,2.176,2.375,3.681
			c0.474,1.502,0.712,3.125,0.712,4.863c0,1.745-0.174,3.398-0.238,4.985c-0.032,0.771-0.019,1.321-0.117,1.899
			c-0.015,0.618-0.089,1.202-0.118,1.663c-0.321,0.947-0.083,1.822,0.712,2.609c-2.219-1.264-4.392-2.135-6.527-2.609
			c-2.137-0.477-4.094-0.504-4.47,0.036l-0.634,4.237c-0.796,3.166-2.18,7.001-4.156,11.512c-1.981,4.51-4.153,9.141-6.528,13.891
			c-2.693,3.64-5.975,7.756-9.853,12.343c-3.879,4.593-7.834,8.903-11.869,12.938s-7.876,7.56-11.513,10.563
			c-3.644,3.011-6.647,4.833-9.022,5.462c-1.688,0.421-3.128,0.634-4.323,0.634C534.652,462.533,534.115,462.479,533.64,462.372
			 M575.064,353.884c-7.043,3.008-13.969,7.041-20.771,12.104c-6.807,5.068-13.258,10.844-19.348,17.332
			c-6.095,6.491-11.674,13.214-16.735,20.179c-5.068,6.966-9.42,13.927-13.06,20.89c-3.643,6.968-6.253,13.376-7.832,19.231
			c-0.794,2.215-1.506,5.063-2.137,8.544c-0.477,3.8-0.593,7.875-0.357,12.229c0.238,4.352,1.225,8.425,2.968,12.223
			c1.739,3.799,4.392,7.084,7.951,9.855c3.563,2.763,8.347,4.467,14.364,5.103c6.646-0.16,13.608-2.654,20.892-7.479
			c7.277-4.825,14.479-10.566,21.604-17.212c-0.796,7.124,0.354,13.059,3.439,17.805c3.087,4.749,8.429,7.438,16.027,8.071
			c3.162,0.155,6.249-0.199,9.256-1.066c3.004-0.871,5.815-1.981,8.429-3.325c2.61-1.342,4.984-2.766,7.121-4.272
			c2.136-1.504,3.918-2.886,5.342-4.153c9.021-7.279,17.211-15.47,24.571-24.572c7.357-9.1,14.439-18.316,21.245-27.657v-0.237
			l6.886-9.495c0.95-1.106,0.95-2.412,0-3.918c-0.95-1.501-2.219-2.805-3.799-3.915c-1.583-1.106-3.245-1.858-4.984-2.255
			c-1.745-0.396-2.931-0.199-3.561,0.593c-0.636,1.109-1.27,2.135-1.9,3.086c-0.633,0.947-1.583,2.056-2.849,3.322
			c-3.485,4.908-7.163,10.012-11.038,15.313c-3.882,5.303-7.916,10.291-12.108,14.954c-3.604,4.015-7.301,7.622-11.077,10.872
			c0.591,0.962,0.828,1.756,0.514,2.215c0,0-8.8,6.188-9.382,6.66c-1.661,1.258-3.325,1.794-4.994,1.607
			c-1.666-0.187-3.108-0.788-4.323-1.803c-1.218-1.013-1.834-2.504-2.57-3.869c-0.912-1.688,0.521-4.543,1.898-5.843l6.398-8.027
			c0.629-0.916,0.926-0.921,2.605,0.277c1.561-3.27,3.234-6.614,5.026-10.043c1.814-3.478,3.597-6.722,5.339-9.732
			c0.792-1.424,1.583-2.809,2.375-4.153c0.791-1.345,1.504-2.57,2.136-3.68c0.951-2.216,1.226-4.511,0.832-6.885
			c-0.398-2.375-1.229-4.707-2.491-7.003c-1.269-2.294-2.852-4.391-4.749-6.292c-1.896-1.897-3.958-3.56-6.174-4.983
			c1.107,0.472,2.411,0.712,3.917,0.712c1.504,0,2.969-0.119,4.393-0.358c1.425-0.233,2.65-0.63,3.681-1.186
			c1.025-0.552,1.622-1.305,1.782-2.255c0.945-4.113,1.542-8.271,1.777-12.462c0.238-4.194,0-8.151-0.712-11.871
			c-0.712-3.716-2.056-6.961-4.035-9.733c-1.979-2.769-4.868-4.786-8.667-6.054c-2.215-0.63-4.271-1.107-6.169-1.425
			c-1.901-0.314-3.882-0.474-5.936-0.474C589.108,349.374,582.107,350.876,575.064,353.884"/>
	</defs>
	<clipPath id="SVGID_31_">
		<use xlink:href="#SVGID_30_"  overflow="visible"/>
	</clipPath>
	
		<linearGradient id="SVGID_32_" gradientUnits="userSpaceOnUse" x1="0" y1="595.2798" x2="1" y2="595.2798" gradientTransform="matrix(615.9999 -288 -288 -615.9999 171588.6875 367315.6875)">
		<stop  offset="0" style="stop-color:#602E8F"/>
		<stop  offset="0.3539" style="stop-color:#992C6A"/>
		<stop  offset="0.6688" style="stop-color:#C5274A"/>
		<stop  offset="0.8907" style="stop-color:#E02231"/>
		<stop  offset="1" style="stop-color:#EC2027"/>
	</linearGradient>
	<polygon clip-path="url(#SVGID_31_)" fill="url(#SVGID_32_)" points="439.517,375.122 635.146,283.659 720.941,467.167 
		525.313,558.63 	"/>
</g>
</svg>
